<svg xmlns="http://www.w3.org/2000/svg" viewBox="0 0 1000 1000" style="enable-background:new 0 0 1000 1000" xml:space="preserve"><style>.st3,.st4,.st5{fill:none;stroke:#000;stroke-width:3;stroke-miterlimit:10}.st4,.st5{stroke:#603813;stroke-width:17}.st5{fill:#c69c6d}</style><text transform="translate(76.734 851.309)" style="font-size:150.6093px;font-family:'Noteworthy-Light';fill:#603813;stroke:#603813;stroke-miterlimit:10" id="Layer_1">Doggo Daycare</text><g id="Layer_3"><path class="st4" d="M449.64 273.67s-62.29 57.67-53.06 115.35"/><path class="st4" d="M505.01 107.58s-103.81-13.84-126.88-4.61-85.36 117.65-89.97 136.11c-3.93 15.71 10.54 143.47 29.16 191.06 3.25 8.3 6.63 14.17 10.05 16.57 23.07 16.15 6.92 57.67 32.3 92.28 31.07 42.37 25.46 46.94 76.49 89.83 15.81 13.29 8.87 37.05 66.54 53.19h4.61c57.67-16.15 50.73-39.9 66.54-53.19 51.03-42.9 45.42-47.47 76.49-89.83 25.38-34.6 9.23-76.13 32.3-92.28 3.43-2.4 6.8-8.26 10.05-16.57 18.62-47.59 33.09-175.34 29.16-191.06-4.61-18.46-66.9-126.88-89.97-136.11-23.06-9.24-126.87 4.61-126.87 4.61z"/><path class="st4" d="M666.49 455.92c-6.92-4.61-27.68-11.53-27.68 0s-18.46 23.07-59.98 41.52c-41.52 18.46-71.51-34.6-71.51-34.6h-4.61s-29.99 53.06-71.51 34.6-59.98-29.99-59.98-41.52c0-11.53-20.76-4.61-27.68 0M597.28 255.22s4.61 18.46 25.38 25.38 36.91-16.15 29.99-18.46c-6.92-2.31 9.23-34.6-20.76-34.6-29.99 0-29.99 9.22-34.61 27.68z"/><path class="st5" d="M631.89 100.66s32.3-34.6 73.82-6.92c41.52 27.68 177.63 170.71 166.1 193.78-11.53 23.07-4.61 101.5 0 156.87 4.61 55.37-80.74 101.5-94.58 94.58s-66.9-32.3-62.29-43.83c4.61-11.53 30.65-182.25 1.49-177.63"/><path class="st4" d="M574.21 628.94c23.07-32.3 4.61-126.88 4.61-126.88M560.37 273.67s62.29 57.67 53.06 115.35M502.7 421.33l4.61-2.32c19.97 11.53 17.75 2.31 31.06 0 13.31-2.31 15.53-27.68 19.97-29.99 4.44-2.31 13.31-27.68 0-48.45-13.31-20.76-48.81-23.07-48.81-23.07h-4.61s-38.32 2.31-52.69 23.07c-14.37 20.76-4.79 46.14 0 48.45 4.79 2.31 7.19 27.68 21.56 29.99 14.37 2.31 11.98 11.53 33.53 0"/><path class="st5" d="M378.12 100.66s-32.3-34.6-73.82-6.92-177.63 170.71-166.1 193.78 4.61 101.5 0 156.87 80.74 101.5 94.58 94.58c13.84-6.92 66.9-32.3 62.29-43.83-4.61-11.53-30.65-182.25-1.49-177.63"/><path class="st4" d="M412.73 255.22s-4.61 18.46-25.38 25.38c-20.76 6.92-36.91-16.15-29.99-18.46 6.92-2.31-9.23-34.6 20.76-34.6s29.99 9.22 34.61 27.68zM435.8 628.94c-23.07-32.3-4.61-126.88-4.61-126.88"/></g></svg>